<?xml version="1.0" standalone="no"?>
<!DOCTYPE svg PUBLIC "-//W3C//DTD SVG 20010904//EN"
 "http://www.w3.org/TR/2001/REC-SVG-20010904/DTD/svg10.dtd">
<svg version="1.0" xmlns="http://www.w3.org/2000/svg"
 width="2534.000000pt" height="2534.000000pt" viewBox="0 0 2534.000000 2534.000000"
 preserveAspectRatio="xMidYMid meet">
<metadata>
Created by potrace 1.11, written by Peter Selinger 2001-2013
</metadata>
<g transform="translate(0.000000,2534.000000) scale(0.100000,-0.100000)"
fill="#000000" stroke="none">
<path d="M12304 25273 c-32 -36 -68 -75 -79 -87 -11 -12 -51 -57 -90 -101 -38
-44 -72 -82 -75 -85 -3 -3 -32 -36 -65 -75 -33 -38 -62 -72 -65 -75 -3 -3 -34
-39 -70 -80 -36 -41 -67 -77 -70 -80 -3 -3 -27 -32 -55 -65 -27 -33 -52 -62
-55 -65 -7 -6 -396 -473 -450 -540 -19 -24 -69 -85 -110 -135 -41 -50 -88
-109 -105 -129 -16 -21 -69 -86 -116 -145 -47 -58 -163 -205 -258 -326 -95
-121 -180 -229 -190 -240 -9 -11 -34 -45 -56 -75 -21 -30 -42 -57 -46 -60 -5
-4 -443 -583 -492 -651 -9 -13 -60 -82 -113 -154 -113 -153 -275 -377 -322
-443 -17 -26 -38 -54 -45 -63 -12 -15 -23 -31 -92 -129 -114 -162 -231 -329
-310 -445 -49 -71 -111 -161 -138 -200 -26 -38 -140 -207 -251 -375 -191 -286
-276 -417 -420 -642 -33 -51 -79 -122 -102 -158 -86 -134 -234 -372 -234 -377
0 -3 -8 -17 -19 -31 -45 -64 -397 -654 -583 -977 -519 -903 -1056 -1951 -1393
-2720 -29 -66 -64 -145 -78 -175 -23 -50 -173 -403 -217 -510 -10 -25 -34 -83
-54 -130 -84 -204 -297 -765 -366 -965 -124 -361 -233 -697 -310 -960 -72
-246 -79 -269 -100 -347 -11 -43 -29 -113 -41 -155 -11 -43 -36 -141 -55 -218
-19 -77 -41 -167 -49 -200 -9 -33 -17 -69 -19 -80 -2 -11 -12 -51 -21 -90 -14
-60 -84 -399 -98 -475 -51 -273 -87 -488 -103 -605 -3 -27 -8 -58 -10 -69 -2
-10 -6 -44 -10 -75 -3 -31 -8 -58 -9 -61 -2 -3 -6 -39 -10 -80 -4 -41 -8 -82
-10 -90 -2 -8 -6 -44 -9 -80 -4 -36 -9 -81 -11 -100 -16 -141 -22 -208 -30
-325 -3 -44 -8 -102 -10 -130 -20 -262 -28 -1039 -12 -1315 15 -265 33 -490
42 -540 2 -8 6 -55 10 -105 4 -49 8 -92 10 -95 2 -3 6 -39 10 -80 4 -41 8 -77
10 -80 2 -3 6 -30 10 -60 3 -30 10 -80 15 -110 5 -30 12 -73 15 -95 6 -37 63
-340 70 -375 2 -8 11 -48 19 -89 148 -689 418 -1421 737 -2001 22 -41 51 -93
63 -115 18 -33 76 -131 129 -220 35 -58 285 -427 318 -470 21 -27 42 -55 46
-60 29 -39 112 -144 129 -165 12 -14 59 -70 104 -125 46 -55 88 -104 94 -110
14 -12 144 -160 211 -240 28 -32 68 -80 90 -104 22 -25 45 -51 50 -57 6 -6 39
-43 76 -80 36 -38 101 -109 144 -159 129 -147 143 -162 325 -345 198 -199 226
-225 460 -426 293 -252 809 -603 1210 -823 264 -145 691 -346 970 -456 80 -31
154 -61 165 -65 185 -74 661 -228 930 -301 17 -4 55 -15 85 -23 93 -26 527
-126 605 -140 64 -11 301 -55 320 -59 11 -3 45 -8 75 -12 30 -4 62 -9 71 -10
9 -2 34 -6 55 -9 22 -3 50 -8 64 -11 14 -2 48 -7 75 -10 28 -3 64 -7 80 -10
17 -2 53 -7 80 -10 28 -3 64 -8 80 -10 17 -2 57 -7 90 -10 33 -3 85 -8 115
-11 168 -17 370 -28 520 -28 126 0 363 11 410 18 14 3 69 7 123 11 54 4 108 8
120 10 12 2 49 6 82 10 33 3 74 8 90 11 17 3 46 7 65 9 47 5 250 33 275 38 11
3 41 7 66 11 51 8 70 11 184 31 44 8 91 16 105 19 77 14 314 63 338 70 9 3 28
7 42 10 40 8 60 12 196 46 71 17 136 33 144 35 18 4 292 83 411 118 87 26 378
122 414 136 11 5 45 17 75 29 147 53 310 117 360 139 30 14 78 34 105 45 164
64 587 270 774 375 51 29 95 53 97 53 17 0 466 284 644 407 102 71 393 292
410 312 3 4 21 18 40 33 19 14 44 34 55 44 11 11 36 32 55 48 169 138 510 477
710 706 58 66 234 286 300 375 137 185 148 200 207 290 95 143 133 205 133
214 0 5 4 11 8 13 25 9 323 570 425 798 93 209 211 518 286 750 40 126 110
358 116 388 2 10 17 73 35 142 18 69 34 133 36 142 14 61 75 357 79 388 2 14
6 36 9 50 3 13 8 42 11 65 3 22 8 47 10 55 4 15 8 40 26 165 12 81 14 99 33
260 9 66 18 149 21 185 4 36 8 81 10 100 28 285 40 577 40 1020 0 381 -10 676
-30 885 -2 28 -7 82 -10 120 -3 39 -8 88 -10 110 -3 22 -7 67 -10 100 -3 33
-7 74 -10 90 -2 17 -11 89 -20 160 -8 72 -18 146 -20 165 -3 19 -15 96 -26
170 -11 74 -22 149 -24 165 -3 17 -7 41 -10 55 -2 14 -7 39 -9 55 -6 34 -14
80 -20 110 -2 11 -7 40 -11 65 -4 25 -9 54 -11 65 -10 48 -25 122 -30 150 -3
17 -21 104 -40 195 -20 91 -37 172 -39 180 -2 8 -9 38 -15 65 -6 28 -14 59
-16 70 -2 11 -29 119 -59 240 -31 121 -58 227 -60 235 -2 8 -11 42 -20 75 -9
33 -20 74 -25 90 -4 17 -22 80 -40 140 -17 61 -35 124 -40 140 -61 230 -292
926 -437 1315 -20 52 -46 122 -58 155 -106 285 -389 973 -481 1170 -16 33 -29
62 -30 65 -2 10 -19 49 -104 235 -12 28 -39 84 -58 125 -20 41 -36 77 -37 80
-1 5 -15 35 -92 200 -66 140 -383 776 -456 915 -35 66 -94 179 -131 250 -38
72 -76 144 -86 160 -9 17 -39 71 -65 120 -27 50 -59 110 -73 135 -14 25 -54
97 -89 160 -34 63 -67 122 -73 130 -6 8 -14 24 -20 35 -5 11 -23 43 -40 70
-16 28 -33 57 -37 65 -4 8 -44 79 -89 157 -44 78 -84 147 -88 155 -8 15 -23
41 -47 78 -9 14 -69 115 -134 225 -65 110 -121 202 -125 205 -3 3 -14 21 -23
40 -9 19 -41 73 -71 120 -30 47 -78 123 -106 170 -28 47 -79 129 -113 183 -34
53 -91 143 -126 200 -63 99 -100 157 -279 432 -154 237 -619 928 -685 1016 -9
13 -53 76 -97 139 -43 63 -83 120 -87 125 -5 6 -35 48 -68 95 -33 47 -63 90
-67 95 -10 12 -166 229 -242 336 -30 42 -61 83 -70 92 -9 8 -16 19 -16 22 0 4
-16 28 -35 53 -20 26 -89 119 -155 207 -65 88 -125 169 -134 180 -9 11 -66 88
-128 170 -62 83 -115 152 -118 155 -3 3 -21 26 -40 53 -18 26 -37 47 -42 47
-4 0 -8 5 -8 10 0 6 -28 46 -62 89 -35 43 -74 93 -88 111 -74 98 -481 611
-641 805 -45 55 -96 117 -113 139 -17 21 -36 43 -41 50 -6 6 -50 60 -99 119
-49 60 -99 120 -111 133 -13 14 -38 44 -57 66 -36 45 -90 110 -98 118 -3 3
-36 42 -74 87 -38 45 -73 80 -79 76 -6 -3 -7 -1 -3 5 3 6 1 16 -6 24 -7 7 -38
42 -68 78 -30 36 -62 72 -70 80 -8 8 -40 44 -70 80 -30 35 -62 71 -70 80 -8 9
-43 47 -76 85 -34 39 -74 84 -89 100 -49 53 -180 197 -195 214 -8 10 -44 51
-80 92 -77 89 -81 93 -251 284 -73 83 -145 162 -159 177 l-26 28 -60 -67z"/>
</g>
</svg>
