<?xml version="1.0" encoding="UTF-8" standalone="no"?>
<!DOCTYPE svg PUBLIC "-//W3C//DTD SVG 1.1//EN" "http://www.w3.org/Graphics/SVG/1.1/DTD/svg11.dtd">
<svg width="100%" height="100%" viewBox="0 0 1697 2534" version="1.1" xmlns="http://www.w3.org/2000/svg" xmlns:xlink="http://www.w3.org/1999/xlink" xml:space="preserve" xmlns:serif="http://www.serif.com/" style="fill-rule:evenodd;clip-rule:evenodd;stroke-linejoin:round;stroke-miterlimit:2;">
    <g transform="matrix(1,0,0,1,-2044.41,-1213.08)">
        <g transform="matrix(4.16667,0,0,4.16667,184.456,344.585)">
            <path d="M453.84,609.99L453.84,610.15C453.82,610.46 453.81,610.77 453.81,611.07C453.8,610.52 453.81,609.97 453.82,609.42C453.82,609.61 453.83,609.8 453.84,609.99Z" style="fill:rgb(246,235,20);fill-rule:nonzero;"/>
        </g>
        <g transform="matrix(4.16667,0,0,4.16667,184.456,344.585)">
            <path d="M456.98,653.08C455.92,646.59 455.11,639.84 454.58,632.79C455.1,639.46 455.86,645.88 456.86,652.06C456.9,652.41 456.94,652.73 456.98,653.08Z" style="fill:rgb(246,235,20);fill-rule:nonzero;"/>
        </g>
        <g transform="matrix(4.16667,0,0,4.16667,184.456,344.585)">
            <path d="M487.03,466.37L487.03,466.41C486.42,467.87 485.82,469.32 485.23,470.79C484.61,472.3 484,473.82 483.39,475.34C484.52,472.45 485.69,469.57 486.89,466.7C486.93,466.59 486.97,466.48 487.03,466.37Z" style="fill:rgb(246,235,20);fill-rule:nonzero;"/>
        </g>
        <g transform="matrix(4.16667,0,0,4.16667,184.456,344.585)">
            <path d="M478.44,488.292C477.886,489.804 477.329,491.315 476.79,492.83C477.32,491.36 477.85,489.88 478.4,488.4C478.413,488.364 478.427,488.329 478.44,488.292Z" style="fill:rgb(246,235,20);fill-rule:nonzero;"/>
        </g>
        <g transform="matrix(4.16667,0,0,4.16667,184.456,344.585)">
            <path d="M483.71,719.9C488.16,728.27 493.14,735.92 498.53,742.91C497.02,741.43 495.54,739.93 494.08,738.37C494.06,738.36 494.05,738.34 494.04,738.33L494.01,738.3C494.01,738.3 494,738.3 494,738.29C493.97,738.26 493.95,738.24 493.93,738.21C493.8,738.05 493.67,737.89 493.55,737.73C493.52,737.68 493.48,737.63 493.43,737.58C493.41,737.56 493.39,737.53 493.37,737.5C493.23,737.32 493.08,737.14 492.94,736.96C492.91,736.92 492.88,736.89 492.85,736.85C492.82,736.81 492.79,736.77 492.76,736.73C492.28,736.13 491.8,735.53 491.33,734.92C491.11,734.64 490.88,734.35 490.66,734.06C490.57,733.94 490.47,733.81 490.37,733.68C490.22,733.48 490.06,733.28 489.91,733.08C489.89,733.05 489.87,733.02 489.84,732.99C489.8,732.93 489.76,732.87 489.72,732.81C489.7,732.79 489.69,732.78 489.68,732.76C489.44,732.45 489.21,732.14 488.98,731.82C488.78,731.55 488.58,731.28 488.38,731.01C488.37,730.99 488.36,730.98 488.35,730.96C488.24,730.81 488.13,730.66 488.02,730.51C487.83,730.25 487.64,729.99 487.46,729.73C487.37,729.6 487.28,729.48 487.19,729.36C487.1,729.24 487.02,729.12 486.94,728.99C486.9,728.94 486.86,728.9 486.83,728.85C486.8,728.8 486.76,728.75 486.73,728.7C486.66,728.6 486.59,728.5 486.52,728.41C486.49,728.36 486.45,728.31 486.42,728.25C486.39,728.22 486.37,728.19 486.35,728.16C485.94,727.56 485.52,726.96 485.11,726.35C485.04,726.26 484.98,726.17 484.93,726.08C484.68,725.71 484.44,725.35 484.2,724.98C484.05,724.77 483.91,724.55 483.77,724.34C483.72,724.26 483.67,724.19 483.62,724.11C483.56,724.03 483.52,723.95 483.47,723.87C483.23,723.52 483,723.16 482.76,722.8C482.5,722.38 482.23,721.97 481.97,721.55C481.56,720.9 481.16,720.24 480.76,719.58C480.35,718.92 479.96,718.25 479.56,717.58C478.77,716.24 477.99,714.88 477.23,713.49C476.85,712.8 476.47,712.1 476.1,711.4C475.85,710.94 475.61,710.48 475.37,710.01C474.83,708.97 474.3,707.93 473.78,706.87C473.49,706.29 473.21,705.71 472.93,705.13C472.2,703.6 471.49,702.05 470.79,700.48C470.8,700.47 470.8,700.47 470.81,700.46C466.58,690.94 463.02,680.59 460.27,669.32L460.27,669.36C460.15,669.76 460.08,670.15 460,670.54C458.93,665.36 458.04,660.15 457.27,654.86C457.34,655.24 457.4,655.61 457.47,655.98C457.75,657.58 458.05,659.17 458.37,660.74C458.51,661.49 458.66,662.24 458.83,662.99C458.99,663.8 459.17,664.6 459.35,665.4C459.4,665.64 459.45,665.88 459.52,666.12C459.71,667 459.92,667.88 460.14,668.76C460.18,668.95 460.22,669.13 460.27,669.31C460.64,667.51 461.02,665.72 461.42,663.94C462.07,660.98 462.77,658.04 463.51,655.11C488.22,557.39 558.27,477.74 650,439.77C687.36,424.31 728.32,415.79 771.25,415.79C776.29,415.79 781.32,415.9 786.31,416.14C787.62,418.75 788.92,421.36 790.2,423.99C807.29,459.05 821.66,496.09 830.24,533.24C830.29,533.45 830.34,533.67 830.39,533.88C766.61,536.24 705.78,550.22 650,573.77C582.7,602.25 522.669,644.61 473.69,697.35C474.73,700.25 475.84,703.08 477.01,705.84L477.01,705.85C479.07,710.75 481.31,715.42 483.71,719.9Z" style="fill:rgb(246,235,20);fill-rule:nonzero;"/>
        </g>
        <g transform="matrix(4.16667,0,0,4.16667,184.456,344.585)">
            <path d="M650,743.37C702.58,717.36 760.27,700.12 821.14,693.54C819.77,696.56 818.34,699.5 816.84,702.35C765.64,799.8 642.59,799.8 642.59,799.8C642.59,799.8 618.17,799.8 586.56,791.17L586.55,791.17C583.1,790.23 579.58,789.19 575.99,788.03C599.24,771.16 624.01,756.2 650,743.37Z" style="fill:rgb(246,235,20);fill-rule:nonzero;"/>
        </g>
        <g transform="matrix(4.16667,0,0,4.16667,184.456,344.585)">
            <path d="M521.06,764.45C521.4,764.72 521.74,764.98 522.09,765.24C522.03,765.19 521.969,765.14 521.909,765.09C521.62,764.88 521.34,764.66 521.06,764.45ZM523.2,766.07C523.9,766.6 524.59,767.11 525.29,767.61C524.73,767.2 524.159,766.78 523.599,766.36C523.46,766.27 523.33,766.17 523.2,766.07ZM527.85,769.43C528.17,769.66 528.49,769.89 528.81,770.1C528.78,770.07 528.74,770.05 528.71,770.02C528.42,769.82 528.14,769.62 527.85,769.43ZM533.02,772.91C533.88,773.47 534.75,774.03 535.62,774.56C535.04,774.2 534.47,773.83 533.89,773.46C533.6,773.28 533.31,773.1 533.02,772.91ZM541.73,778.23C542.29,778.55 542.84,778.86 543.4,779.18C543.14,779.03 542.87,778.88 542.61,778.72C542.32,778.56 542.02,778.4 541.73,778.23ZM832.08,693.6C832.38,692.85 832.65,692.07 832.94,691.3C832.8,691.68 832.65,692.06 832.51,692.44C832.37,692.83 832.22,693.22 832.08,693.6ZM833.64,689.41C833.98,688.51 834.3,687.59 834.62,686.67C834.85,686.02 835.07,685.37 835.28,684.71C834.65,686.61 833.99,688.48 833.3,690.33C833.42,690.03 833.53,689.72 833.64,689.41ZM789.5,416.3C789.36,416.02 789.21,415.74 789.07,415.47C788.39,414.15 787.7,412.84 787.01,411.54C786.79,411.12 786.57,410.7 786.35,410.28C786.28,410.15 786.21,410.03 786.14,409.9C785.02,407.77 783.88,405.66 782.74,403.55C781.97,402.15 781.21,400.75 780.44,399.35C779.67,397.96 778.9,396.57 778.13,395.18C777.35,393.8 776.58,392.42 775.8,391.04C775.04,389.7 774.28,388.37 773.52,387.04C772.66,385.55 771.81,384.07 770.96,382.6C770.21,381.32 769.47,380.05 768.72,378.78C767.93,377.44 767.14,376.1 766.34,374.76C765.54,373.42 764.75,372.09 763.95,370.77C763.19,369.52 762.44,368.27 761.69,367.03C758.36,361.58 755.02,356.23 751.68,350.98C750.94,349.82 750.2,348.66 749.45,347.51C748.6,346.18 747.74,344.86 746.89,343.54C746.12,342.37 745.36,341.21 744.6,340.05C743.8,338.82 742.99,337.59 742.18,336.38C734.1,324.2 726.09,312.67 718.34,301.94C717.57,300.87 716.8,299.81 716.04,298.76C715.26,297.7 714.49,296.64 713.73,295.6C689.33,262.3 668.18,237.36 657.46,225.17C657.45,225.19 657.42,225.21 657.39,225.25C670.3,240.36 690.39,264.92 712.57,295.82C717.17,302.22 721.85,308.89 726.58,315.82C746.86,345.48 767.96,379.64 786.31,416.14C781.32,415.9 776.29,415.79 771.25,415.79C728.32,415.79 687.36,424.31 650,439.77C558.27,477.74 488.22,557.39 463.51,655.11C464.17,660.01 464.97,664.77 465.9,669.38C467.91,679.37 470.53,688.68 473.69,697.35C522.669,644.61 582.7,602.25 650,573.77C705.78,550.22 766.61,536.24 830.39,533.88C831,536.53 831.58,539.19 832.13,541.84C833.97,541.76 835.8,541.7 837.64,541.64L837.65,541.64C832.7,520.2 825.82,498.79 817.59,477.78C809.37,456.77 799.8,436.16 789.5,416.3ZM839.73,551.25C839.86,551.86 839.98,552.47 840.1,553.09C839.94,552.21 839.77,551.35 839.58,550.47C839.64,550.73 839.69,550.99 839.73,551.25ZM840.52,555.28C840.65,555.93 840.78,556.59 840.9,557.25C840.68,555.98 840.43,554.72 840.17,553.45C840.29,554.05 840.41,554.66 840.52,555.28ZM844.42,580.87C844.45,581.12 844.48,581.37 844.5,581.62C844.51,581.66 844.52,581.7 844.52,581.74C844.51,581.61 844.5,581.48 844.48,581.35C844.46,581.19 844.44,581.03 844.42,580.87ZM844.75,640.18C844.7,640.71 844.64,641.23 844.58,641.75C844.68,640.96 844.76,640.17 844.84,639.37C844.82,639.64 844.79,639.91 844.75,640.18Z" style="fill:rgb(240,81,34);fill-rule:nonzero;"/>
        </g>
        <g transform="matrix(4.16667,0,0,4.16667,184.456,344.585)">
            <path d="M453.84,609.99L453.84,610.15C453.82,610.46 453.81,610.77 453.81,611.07C453.8,610.52 453.81,609.97 453.82,609.42C453.82,609.61 453.83,609.8 453.84,609.99Z" style="fill:rgb(245,126,31);fill-rule:nonzero;"/>
        </g>
        <g transform="matrix(4.16667,0,0,4.16667,184.456,344.585)">
            <path d="M456.98,653.08C455.92,646.59 455.11,639.84 454.58,632.79C455.1,639.46 455.86,645.88 456.86,652.06C456.9,652.41 456.94,652.73 456.98,653.08Z" style="fill:rgb(245,126,31);fill-rule:nonzero;"/>
        </g>
        <g transform="matrix(4.16667,0,0,4.16667,184.456,344.585)">
            <path d="M478.4,488.4C478.413,488.364 478.427,488.329 478.44,488.292C477.886,489.804 477.329,491.315 476.79,492.83C477.32,491.36 477.85,489.88 478.4,488.4Z" style="fill:rgb(245,126,31);fill-rule:nonzero;"/>
        </g>
        <g transform="matrix(4.16667,0,0,4.16667,184.456,344.585)">
            <path d="M487.03,466.37L487.03,466.41C486.42,467.87 485.82,469.32 485.23,470.79C484.61,472.3 484,473.82 483.39,475.34C484.52,472.45 485.69,469.57 486.89,466.7C486.93,466.59 486.97,466.48 487.03,466.37Z" style="fill:rgb(245,126,31);fill-rule:nonzero;"/>
        </g>
        <g transform="matrix(4.16667,0,0,4.16667,184.456,344.585)">
            <path d="M712.57,295.82C690.84,299.9 669.9,306.19 650,314.43C603.96,333.46 563.39,363 531.26,400.08C513.89,420.13 498.99,442.39 487.03,466.37C542.98,332.02 650,216.84 650,216.84C650,216.84 651,217.92 652.87,219.99C654.25,221.59 655.77,223.34 657.39,225.25C670.3,240.36 690.39,264.92 712.57,295.82Z" style="fill:rgb(245,126,31);fill-rule:nonzero;"/>
        </g>
        <g transform="matrix(4.16667,0,0,4.16667,184.456,344.585)">
            <path d="M833.64,689.41C833.98,688.51 834.3,687.59 834.62,686.67C834.85,686.02 835.07,685.37 835.28,684.71C834.65,686.61 833.99,688.48 833.3,690.33C833.42,690.03 833.53,689.72 833.64,689.41ZM789.5,416.3C789.36,416.02 789.21,415.74 789.07,415.47C788.39,414.15 787.7,412.84 787.01,411.54C786.79,411.12 786.57,410.7 786.35,410.28C786.28,410.15 786.21,410.03 786.14,409.9C785.02,407.77 783.88,405.66 782.74,403.55C781.97,402.15 781.21,400.75 780.44,399.35C779.67,397.96 778.9,396.57 778.13,395.18C777.35,393.8 776.58,392.42 775.8,391.04C775.04,389.7 774.28,388.37 773.52,387.04C772.66,385.55 771.81,384.07 770.96,382.6C770.21,381.32 769.47,380.05 768.72,378.78C767.93,377.44 767.14,376.1 766.34,374.76C765.54,373.42 764.75,372.09 763.95,370.77C763.19,369.52 762.44,368.27 761.69,367.03C758.36,361.58 755.02,356.23 751.68,350.98C750.94,349.82 750.2,348.66 749.45,347.51C748.6,346.18 747.74,344.86 746.89,343.54C746.12,342.37 745.36,341.21 744.6,340.05C743.8,338.82 742.99,337.59 742.18,336.38C734.1,324.2 726.09,312.67 718.34,301.94C717.57,300.87 716.8,299.81 716.04,298.76C715.26,297.7 714.49,296.64 713.73,295.6C689.33,262.3 668.18,237.36 657.46,225.17C655.6,223.05 654.06,221.32 652.87,219.99C654.25,221.59 655.77,223.34 657.39,225.25C670.3,240.36 690.39,264.92 712.57,295.82C717.17,302.22 721.85,308.89 726.58,315.82C746.86,345.48 767.96,379.64 786.31,416.14C781.32,415.9 776.29,415.79 771.25,415.79C728.32,415.79 687.36,424.31 650,439.77C558.27,477.74 488.22,557.39 463.51,655.11C462.77,658.04 462.07,660.98 461.42,663.94C461.02,665.72 460.64,667.51 460.27,669.31L460.27,669.32C463.02,680.59 466.58,690.94 470.81,700.46C472.51,704.31 474.33,708.01 476.24,711.59C477.04,713.1 477.86,714.58 478.7,716.04C479.02,716.61 479.35,717.18 479.68,717.74C480.54,719.21 481.42,720.66 482.33,722.08C482.7,722.68 483.08,723.28 483.47,723.87C483.52,723.95 483.56,724.03 483.62,724.11C483.67,724.19 483.72,724.26 483.77,724.34C483.91,724.55 484.05,724.77 484.2,724.98C484.44,725.35 484.68,725.71 484.93,726.08C484.98,726.17 485.04,726.26 485.11,726.35C485.52,726.96 485.94,727.56 486.35,728.16C486.37,728.19 486.39,728.22 486.42,728.25C486.52,728.4 486.63,728.55 486.73,728.7C486.76,728.75 486.8,728.8 486.83,728.85C486.86,728.9 486.9,728.94 486.94,728.99C487.02,729.12 487.1,729.24 487.19,729.36C487.28,729.48 487.37,729.6 487.46,729.73C487.64,729.99 487.83,730.25 488.02,730.51C488.13,730.66 488.24,730.81 488.35,730.96C488.36,730.98 488.37,730.99 488.38,731.01C488.58,731.28 488.78,731.55 488.98,731.82C489.11,732.02 489.26,732.21 489.41,732.41C489.55,732.6 489.69,732.8 489.84,732.99C489.87,733.02 489.89,733.05 489.91,733.08C490.06,733.28 490.22,733.48 490.37,733.68C490.47,733.81 490.57,733.94 490.66,734.06C490.88,734.35 491.11,734.65 491.33,734.94C491.55,735.23 491.77,735.51 492.01,735.8C492.25,736.11 492.5,736.42 492.76,736.73C492.79,736.77 492.82,736.81 492.85,736.85C492.88,736.89 492.91,736.92 492.94,736.96C493.08,737.14 493.23,737.32 493.37,737.5C493.39,737.53 493.41,737.56 493.43,737.58C493.48,737.63 493.52,737.68 493.55,737.73C493.71,737.93 493.87,738.12 494.03,738.31C494.03,738.32 494.03,738.32 494.04,738.33C494.05,738.34 494.06,738.36 494.08,738.37C494.38,738.76 494.7,739.14 495.03,739.52C495.27,739.82 495.52,740.11 495.77,740.4C495.79,740.42 495.8,740.44 495.82,740.46C496.05,740.74 496.29,741.01 496.52,741.28C496.87,741.69 497.23,742.1 497.59,742.51C497.72,742.67 497.86,742.83 498.01,742.98C498.05,743.03 498.09,743.08 498.14,743.13C499.11,744.23 500.1,745.31 501.1,746.37C501.55,746.86 502.01,747.35 502.49,747.83C501.15,746.23 499.83,744.59 498.53,742.91C493.14,735.92 488.16,728.27 483.71,719.9C481.31,715.42 479.07,710.75 477.01,705.85L477.01,705.84C475.84,703.08 474.73,700.25 473.69,697.35C522.669,644.61 582.7,602.25 650,573.77C705.78,550.22 766.61,536.24 830.39,533.88C831,536.53 831.58,539.19 832.13,541.84C833.97,541.76 835.8,541.7 837.64,541.64L837.65,541.64C832.7,520.2 825.82,498.79 817.59,477.78C809.37,456.77 799.8,436.16 789.5,416.3ZM839.58,550.47C839.64,550.73 839.69,550.99 839.73,551.25C839.86,551.86 839.98,552.47 840.1,553.09C839.94,552.21 839.77,551.35 839.58,550.47Z" style="fill:rgb(245,126,31);fill-rule:nonzero;"/>
        </g>
        <g transform="matrix(4.16667,0,0,4.16667,184.456,344.585)">
            <path d="M828.98,700.99C781.14,808.2 650,808.2 650,808.2C650,808.2 618.37,808.2 580.5,795.48C582.51,794.03 584.52,792.59 586.55,791.17L586.56,791.17C607.86,776.2 630.38,762.82 653.92,751.22C704.1,726.38 758.99,709.54 816.84,702.35C820.87,701.85 824.92,701.4 828.98,700.99Z" style="fill:rgb(245,126,31);fill-rule:nonzero;"/>
        </g>
        <g transform="matrix(4.16667,0,0,4.16667,184.456,344.585)">
            <path d="M465.9,669.38C465.3,671.96 464.73,674.56 464.2,677.17C463.14,672.89 462.22,668.48 461.42,663.94C462.07,660.98 462.77,658.04 463.51,655.11C488.22,557.39 558.27,477.74 650,439.77C687.359,424.31 728.32,415.79 771.25,415.79C776.29,415.79 781.32,415.9 786.31,416.14C767.96,379.64 746.859,345.48 726.58,315.82C747.21,344.81 769.45,379.1 789.28,416.29C790.68,418.9 792.05,421.52 793.42,424.15C792.35,424.09 791.28,424.03 790.2,423.99C785.22,423.75 780.21,423.64 775.18,423.64C732.25,423.64 691.28,432.15 653.92,447.62C560.19,486.41 489.1,568.73 465.9,669.38Z" style="fill:rgb(240,81,34);fill-rule:nonzero;"/>
        </g>
        <g transform="matrix(4.16667,0,0,4.16667,184.456,344.585)">
            <path d="M844.58,641.75C844.64,641.23 844.7,640.71 844.75,640.18C844.79,639.91 844.82,639.64 844.84,639.37C844.76,640.17 844.68,640.96 844.58,641.75ZM844.5,581.62C844.479,581.37 844.45,581.12 844.42,580.87C844.439,581.03 844.46,581.19 844.479,581.35C844.5,581.48 844.51,581.61 844.52,581.74C844.52,581.7 844.51,581.66 844.5,581.62ZM840.52,555.28C840.41,554.66 840.29,554.05 840.17,553.45C840.43,554.72 840.68,555.98 840.899,557.25C840.78,556.59 840.649,555.93 840.52,555.28ZM839.729,551.25C839.689,550.99 839.64,550.73 839.58,550.47C839.77,551.35 839.939,552.21 840.1,553.09C839.979,552.47 839.859,551.86 839.729,551.25ZM834.62,686.67C834.3,687.59 833.979,688.51 833.64,689.41C833.53,689.72 833.42,690.03 833.3,690.33C833.99,688.48 834.649,686.61 835.28,684.71C835.07,685.37 834.85,686.02 834.62,686.67ZM832.08,693.6C832.22,693.22 832.37,692.83 832.51,692.44C832.649,692.06 832.8,691.68 832.939,691.3C832.649,692.07 832.38,692.85 832.08,693.6ZM650,808.2C650,808.2 618.37,808.2 580.5,795.48C582.51,794.03 584.52,792.59 586.55,791.17L586.56,791.17C607.86,776.2 630.38,762.82 653.92,751.22C704.1,726.38 758.99,709.54 816.84,702.35C820.87,701.85 824.92,701.4 828.979,700.99C781.14,808.2 650,808.2 650,808.2ZM541.73,778.23C542.02,778.4 542.32,778.56 542.61,778.72C542.87,778.88 543.14,779.03 543.4,779.18C542.84,778.86 542.29,778.55 541.73,778.23ZM533.02,772.91C533.31,773.1 533.6,773.28 533.89,773.46C534.47,773.83 535.04,774.2 535.62,774.56C534.75,774.03 533.88,773.47 533.02,772.91ZM527.85,769.43C528.14,769.62 528.42,769.82 528.71,770.02C528.74,770.05 528.78,770.07 528.81,770.1C528.49,769.89 528.17,769.66 527.85,769.43ZM523.2,766.07C523.33,766.17 523.46,766.27 523.599,766.36C524.159,766.78 524.73,767.2 525.29,767.61C524.59,767.11 523.9,766.6 523.2,766.07ZM521.06,764.45C521.34,764.66 521.62,764.88 521.909,765.09C521.969,765.14 522.03,765.19 522.09,765.24C521.74,764.98 521.4,764.72 521.06,764.45ZM845.12,549.95C807.37,386.48 657.47,225.16 657.47,225.16L657.46,225.17C668.18,237.36 689.33,262.3 713.729,295.6C714.49,296.64 715.26,297.7 716.04,298.76C716.8,299.81 717.57,300.87 718.34,301.94C726.09,312.67 734.1,324.2 742.18,336.38C742.99,337.59 743.8,338.82 744.6,340.05C745.359,341.21 746.12,342.37 746.89,343.54C747.74,344.86 748.6,346.18 749.45,347.51C750.2,348.66 750.939,349.82 751.68,350.98C755.02,356.23 758.359,361.58 761.689,367.03C762.439,368.27 763.189,369.52 763.95,370.77C764.75,372.09 765.54,373.42 766.34,374.76C767.14,376.1 767.93,377.44 768.72,378.78C769.47,380.05 770.21,381.32 770.96,382.6C771.81,384.07 772.66,385.55 773.52,387.04C774.28,388.37 775.04,389.7 775.8,391.04C776.58,392.42 777.35,393.8 778.13,395.18C778.899,396.57 779.67,397.96 780.439,399.35C781.21,400.75 781.97,402.15 782.74,403.55C783.88,405.66 785.02,407.77 786.14,409.9C786.21,410.03 786.28,410.15 786.35,410.28C786.57,410.7 786.79,411.12 787.01,411.54C787.7,412.84 788.39,414.15 789.07,415.47C789.21,415.74 789.359,416.02 789.5,416.3C799.8,436.16 809.37,456.77 817.59,477.78C825.82,498.79 832.7,520.2 837.649,541.64L837.64,541.64C835.8,541.7 833.97,541.76 832.13,541.84C836.41,562.52 838.8,583.22 838.8,603.59C838.8,639.38 832.28,668.65 821.57,692.59C821.43,692.91 821.29,693.22 821.14,693.54C760.27,700.12 702.58,717.36 650,743.37C624.01,756.2 599.24,771.16 575.99,788.03C575.03,787.72 574.07,787.41 573.1,787.08C548.54,778.87 521.37,765.29 498.53,742.91C499.83,744.59 501.15,746.23 502.49,747.83C502.5,747.85 502.52,747.87 502.54,747.89C502.54,747.9 502.55,747.91 502.56,747.92C527.28,777.43 559.4,794.25 587.97,803.8C625.84,816.51 657.47,816.51 657.47,816.51C657.47,816.51 788.609,816.51 836.439,709.31C847.16,685.37 853.67,656.1 853.67,620.31C853.67,597.12 850.57,573.5 845.12,549.95Z" style="fill:rgb(240,81,34);fill-rule:nonzero;"/>
        </g>
        <g transform="matrix(4.16667,0,0,4.16667,184.456,344.585)">
            <path d="M502.49,747.83C502.01,747.35 501.55,746.86 501.1,746.37C500.1,745.31 499.11,744.23 498.14,743.13C498.09,743.08 498.05,743.03 498.01,742.98C497.86,742.83 497.72,742.67 497.59,742.51C497.23,742.1 496.87,741.69 496.52,741.28C496.29,741.01 496.05,740.74 495.82,740.46C495.8,740.44 495.79,740.42 495.77,740.4C495.52,740.11 495.27,739.82 495.03,739.52C494.7,739.14 494.38,738.76 494.08,738.37C494.06,738.36 494.05,738.34 494.04,738.33C494.03,738.32 494.03,738.32 494.03,738.31C493.87,738.12 493.71,737.93 493.55,737.73C493.52,737.68 493.48,737.63 493.43,737.58C493.41,737.56 493.39,737.53 493.37,737.5C493.23,737.32 493.08,737.14 492.94,736.96C492.91,736.92 492.88,736.89 492.85,736.85C492.82,736.81 492.79,736.77 492.76,736.73C492.5,736.42 492.25,736.11 492.01,735.8C491.78,735.51 491.55,735.22 491.33,734.92C491.11,734.64 490.88,734.35 490.66,734.06C490.57,733.94 490.47,733.81 490.37,733.68C490.15,733.39 489.93,733.1 489.72,732.81C489.7,732.79 489.69,732.78 489.68,732.76C489.59,732.65 489.5,732.53 489.41,732.41C489.26,732.21 489.11,732.02 488.98,731.82C488.78,731.55 488.58,731.28 488.38,731.01C488.37,730.99 488.36,730.98 488.35,730.96C488.24,730.81 488.13,730.66 488.02,730.51C487.83,730.25 487.64,729.99 487.46,729.73C487.37,729.6 487.28,729.48 487.19,729.36C487.1,729.24 487.02,729.12 486.94,728.99C486.9,728.94 486.86,728.9 486.83,728.85C486.8,728.8 486.76,728.75 486.73,728.7C486.66,728.6 486.59,728.5 486.52,728.41C486.49,728.36 486.45,728.31 486.42,728.25C486.39,728.22 486.37,728.19 486.35,728.16C485.94,727.56 485.52,726.96 485.11,726.35C485.04,726.26 484.98,726.17 484.93,726.08C484.68,725.71 484.44,725.35 484.2,724.98C484.05,724.77 483.91,724.55 483.77,724.34C483.72,724.26 483.67,724.19 483.62,724.11C483.56,724.03 483.52,723.95 483.47,723.87C483.08,723.28 482.7,722.68 482.33,722.08C481.42,720.66 480.54,719.21 479.68,717.74C479.35,717.18 479.02,716.61 478.7,716.04C477.86,714.58 477.04,713.1 476.24,711.59C475.69,710.53 475.18,709.43 474.71,708.33C475.47,707.5 476.23,706.67 477.01,705.85C479.07,710.75 481.31,715.42 483.71,719.9C488.16,728.27 493.14,735.92 498.53,742.91C499.83,744.59 501.15,746.23 502.49,747.83Z" style="fill:rgb(240,81,34);fill-rule:nonzero;"/>
        </g>
        <g transform="matrix(4.16667,0,0,4.16667,184.456,344.585)">
            <path d="M521.909,765.09C521.969,765.14 522.03,765.19 522.09,765.24C521.74,764.98 521.4,764.72 521.06,764.45C521.34,764.66 521.62,764.88 521.909,765.09Z" style="fill:rgb(240,81,34);fill-rule:nonzero;"/>
        </g>
        <g transform="matrix(4.16667,0,0,4.16667,184.456,344.585)">
            <path d="M523.599,766.36C524.159,766.78 524.73,767.2 525.29,767.61C524.59,767.11 523.9,766.6 523.2,766.07C523.33,766.17 523.46,766.27 523.599,766.36Z" style="fill:rgb(240,81,34);fill-rule:nonzero;"/>
        </g>
        <g transform="matrix(4.16667,0,0,4.16667,184.456,344.585)">
            <path d="M528.71,770.02C528.74,770.05 528.78,770.07 528.81,770.1C528.49,769.89 528.17,769.66 527.85,769.43C528.14,769.62 528.42,769.82 528.71,770.02Z" style="fill:rgb(240,81,34);fill-rule:nonzero;"/>
        </g>
        <g transform="matrix(4.16667,0,0,4.16667,184.456,344.585)">
            <path d="M533.89,773.46C534.47,773.83 535.04,774.2 535.62,774.56C534.75,774.03 533.88,773.47 533.02,772.91C533.31,773.1 533.6,773.28 533.89,773.46Z" style="fill:rgb(240,81,34);fill-rule:nonzero;"/>
        </g>
        <g transform="matrix(4.16667,0,0,4.16667,184.456,344.585)">
            <path d="M542.61,778.72C542.87,778.88 543.14,779.03 543.4,779.18C542.84,778.86 542.29,778.55 541.73,778.23C542.02,778.4 542.32,778.56 542.61,778.72Z" style="fill:rgb(240,81,34);fill-rule:nonzero;"/>
        </g>
        <g transform="matrix(4.16667,0,0,4.16667,184.456,344.585)">
            <path d="M832.51,692.44C832.65,692.06 832.8,691.68 832.94,691.3C832.65,692.07 832.38,692.85 832.08,693.6C832.22,693.22 832.37,692.83 832.51,692.44Z" style="fill:rgb(240,81,34);fill-rule:nonzero;"/>
        </g>
        <g transform="matrix(4.16667,0,0,4.16667,184.456,344.585)">
            <path d="M840.17,553.45C840.43,554.72 840.68,555.98 840.9,557.25C840.78,556.59 840.65,555.93 840.52,555.28C840.41,554.66 840.29,554.05 840.17,553.45Z" style="fill:rgb(240,81,34);fill-rule:nonzero;"/>
        </g>
        <g transform="matrix(4.16667,0,0,4.16667,184.456,344.585)">
            <path d="M844.48,581.35C844.5,581.48 844.51,581.61 844.52,581.74C844.52,581.7 844.51,581.66 844.5,581.62C844.48,581.37 844.45,581.12 844.42,580.87C844.44,581.03 844.46,581.19 844.48,581.35Z" style="fill:rgb(240,81,34);fill-rule:nonzero;"/>
        </g>
        <g transform="matrix(4.16667,0,0,4.16667,184.456,344.585)">
            <path d="M844.84,639.37C844.76,640.17 844.68,640.96 844.58,641.75C844.64,641.23 844.7,640.71 844.75,640.18C844.79,639.91 844.82,639.64 844.84,639.37Z" style="fill:rgb(240,81,34);fill-rule:nonzero;"/>
        </g>
        <g transform="matrix(4.16667,0,0,4.16667,184.456,344.585)">
            <path d="M492.01,735.8C491.77,735.51 491.55,735.23 491.33,734.94C490.84,734.33 490.37,733.71 489.91,733.08C490.06,733.28 490.22,733.48 490.37,733.68C490.47,733.81 490.57,733.94 490.66,734.06C490.88,734.35 491.11,734.64 491.33,734.92C491.8,735.53 492.28,736.13 492.76,736.73C492.49,736.42 492.24,736.11 492.01,735.8ZM489.41,732.41C489.26,732.21 489.11,732.02 488.98,731.82C489.21,732.14 489.44,732.45 489.68,732.76C489.69,732.78 489.7,732.79 489.72,732.81C489.76,732.87 489.8,732.93 489.84,732.99C489.69,732.8 489.55,732.6 489.41,732.41ZM487.19,729.36C487.28,729.48 487.37,729.6 487.46,729.73C487.64,729.99 487.83,730.25 488.02,730.51C487.73,730.13 487.45,729.75 487.19,729.36ZM486.83,728.85C486.86,728.9 486.9,728.94 486.94,728.99C486.96,729.03 486.99,729.07 487.01,729.1C486.94,729.02 486.88,728.94 486.83,728.85ZM486.35,728.16C486.37,728.19 486.39,728.22 486.42,728.25C486.45,728.31 486.49,728.36 486.52,728.41C486.46,728.33 486.4,728.24 486.35,728.16ZM483.77,724.34C483.91,724.55 484.05,724.77 484.2,724.98C484.44,725.35 484.68,725.71 484.93,726.08C484.52,725.51 484.13,724.93 483.77,724.34ZM482.76,722.8C483,723.16 483.23,723.52 483.47,723.87C483.5,723.91 483.52,723.95 483.54,723.99C483.27,723.6 483.01,723.2 482.76,722.8ZM454.58,632.79C455.1,639.46 455.86,645.88 456.86,652.06C456.9,652.41 456.94,652.73 456.98,653.08C455.92,646.59 455.11,639.84 454.58,632.79ZM453.84,610.15C453.82,610.46 453.81,610.77 453.81,611.07C453.8,610.52 453.81,609.97 453.82,609.42C453.82,609.61 453.83,609.8 453.84,609.99L453.84,610.15ZM846.18,608.79C846.18,608.54 846.17,608.28 846.17,608.02C846.17,607.89 846.17,607.77 846.16,607.64C846.15,606.72 846.13,605.79 846.1,604.87L846.1,604.73C846.09,604.5 846.09,604.27 846.08,604.05C846.08,603.98 846.08,603.92 846.07,603.86C846.06,603.35 846.04,602.85 846.02,602.34C845.99,601.36 845.95,600.38 845.9,599.4C845.88,598.92 845.85,598.43 845.83,597.95C845.77,596.86 845.71,595.77 845.64,594.69C845.62,594.4 845.6,594.11 845.58,593.82C845.51,592.73 845.43,591.63 845.34,590.54C845.33,590.4 845.32,590.27 845.31,590.13C845.22,588.98 845.12,587.82 845.01,586.67C845,586.57 844.99,586.46 844.98,586.36C844.98,586.28 844.97,586.2 844.96,586.12C844.94,585.87 844.92,585.63 844.89,585.39C844.88,585.25 844.86,585.11 844.85,584.97C844.76,583.99 844.66,583 844.55,582.02C844.54,581.95 844.54,581.88 844.53,581.81C844.53,581.79 844.52,581.76 844.52,581.74C844.52,581.7 844.51,581.66 844.5,581.62C844.5,581.53 844.49,581.44 844.48,581.35C844.46,581.19 844.44,581.03 844.42,580.87C844.4,580.71 844.39,580.56 844.37,580.4C844.31,579.82 844.24,579.23 844.17,578.65C844.16,578.58 844.15,578.5 844.14,578.43C844.12,578.26 844.1,578.08 844.08,577.91C844.01,577.31 843.94,576.72 843.86,576.12C843.85,576.01 843.83,575.89 843.82,575.78C843.77,575.37 843.72,574.96 843.66,574.55C843.61,574.23 843.57,573.9 843.53,573.58C843.5,573.39 843.48,573.2 843.45,573.01C843.34,572.19 843.22,571.38 843.1,570.56C843.04,570.1 842.97,569.64 842.9,569.18C842.84,568.73 842.76,568.27 842.69,567.81C842.58,567.1 842.47,566.39 842.36,565.68C842.35,565.63 842.34,565.57 842.33,565.52C842.21,564.76 842.08,564 841.96,563.23C841.96,563.22 841.96,563.21 841.95,563.2C841.51,560.56 841.04,557.92 840.52,555.28C840.41,554.66 840.29,554.05 840.17,553.45C840.16,553.39 840.15,553.33 840.14,553.28C840.13,553.22 840.11,553.15 840.1,553.09C839.98,552.47 839.86,551.86 839.73,551.25C839.6,550.57 839.46,549.9 839.31,549.22C839.27,549 839.22,548.77 839.17,548.55C839.16,548.49 839.15,548.43 839.13,548.37C838.79,546.76 838.44,545.15 838.08,543.54C837.93,542.91 837.79,542.28 837.64,541.64C837.03,539 836.39,536.35 835.72,533.71C833.94,533.76 832.16,533.81 830.39,533.88C766.61,536.24 705.78,550.22 650,573.77C582.7,602.25 522.669,644.61 473.69,697.35C472.71,698.38 471.76,699.42 470.81,700.46C466.58,690.94 463.02,680.59 460.27,669.32L460.27,669.36C460.15,669.76 460.08,670.15 460,670.54C458.93,665.36 458.04,660.15 457.27,654.86C457.34,655.24 457.4,655.61 457.47,655.98C457.75,657.58 458.05,659.17 458.37,660.74C458.51,661.49 458.66,662.24 458.83,662.99C458.99,663.8 459.17,664.6 459.35,665.4C459.4,665.64 459.45,665.88 459.52,666.12C459.71,667 459.92,667.88 460.14,668.76C460.18,668.95 460.22,669.13 460.27,669.31C460.64,667.51 461.02,665.72 461.42,663.94C462.07,660.98 462.77,658.04 463.51,655.11C488.22,557.39 558.27,477.74 650,439.77C687.36,424.31 728.32,415.79 771.25,415.79C776.29,415.79 781.32,415.9 786.31,416.14C787.3,416.18 788.29,416.23 789.28,416.29C789.35,416.29 789.43,416.3 789.5,416.3C789.36,416.02 789.21,415.74 789.07,415.47C788.39,414.15 787.7,412.84 787.01,411.54C786.72,410.99 786.43,410.44 786.14,409.9C785.02,407.77 783.88,405.66 782.74,403.55C781.97,402.15 781.21,400.75 780.44,399.35C779.67,397.96 778.9,396.57 778.13,395.18C777.35,393.8 776.58,392.42 775.8,391.04C775.04,389.7 774.28,388.37 773.52,387.04C772.66,385.55 771.81,384.07 770.96,382.6C770.21,381.32 769.47,380.05 768.72,378.78C767.93,377.44 767.14,376.1 766.34,374.76C765.54,373.42 764.75,372.09 763.95,370.77C763.19,369.52 762.44,368.27 761.69,367.03C758.36,361.58 755.02,356.23 751.68,350.98C750.94,349.82 750.2,348.66 749.45,347.51C748.6,346.18 747.74,344.86 746.89,343.54C746.12,342.37 745.36,341.21 744.6,340.05C743.8,338.82 742.99,337.59 742.18,336.38C734.1,324.2 726.09,312.67 718.34,301.94C717.57,300.87 716.8,299.81 716.04,298.76C715.26,297.7 714.49,296.64 713.73,295.6C713.34,295.67 712.95,295.74 712.57,295.82C690.84,299.9 669.9,306.19 650,314.43C603.96,333.46 563.39,363 531.26,400.08C513.89,420.13 498.99,442.39 487.03,466.37L487.03,466.41C486.42,467.87 485.82,469.33 485.23,470.79C484.61,472.3 484,473.82 483.39,475.34C484.52,472.45 485.69,469.57 486.89,466.7C486.93,466.59 486.97,466.48 487.03,466.37C542.98,332.02 650,216.84 650,216.84C650,216.84 651,217.92 652.87,219.99C646.36,212.5 642.59,208.44 642.59,208.44C642.59,208.44 446.39,419.59 446.39,603.59C446.39,644.87 455.06,677.44 468.84,703.19C476,716.65 484.53,728.24 493.93,738.21C493.95,738.24 493.97,738.26 494,738.29C494,738.3 494.01,738.3 494.01,738.3L494.04,738.33C494.05,738.34 494.06,738.36 494.08,738.37C494.38,738.76 494.7,739.14 495.03,739.52C495.27,739.82 495.52,740.11 495.77,740.4C495.79,740.42 495.8,740.44 495.82,740.46C496.05,740.74 496.29,741.01 496.52,741.28C496.87,741.69 497.23,742.1 497.59,742.51C497.72,742.67 497.86,742.83 498.01,742.98C498.05,743.03 498.09,743.08 498.14,743.13C499.11,744.23 500.1,745.31 501.1,746.37C501.55,746.86 502.01,747.35 502.49,747.83C502.5,747.85 502.52,747.87 502.54,747.89C502.54,747.9 502.55,747.91 502.56,747.92C502.6,747.95 502.63,747.98 502.66,748.01C503.75,749.15 504.86,750.26 505.98,751.35C506.35,751.72 506.73,752.09 507.11,752.45C508.18,753.48 509.26,754.49 510.35,755.48C510.88,755.97 511.42,756.46 511.97,756.94C512.51,757.42 513.06,757.89 513.599,758.36C514.14,758.83 514.69,759.3 515.24,759.76C515.789,760.22 516.34,760.68 516.89,761.13C517.44,761.58 517.99,762.03 518.55,762.48C519.11,762.92 519.669,763.36 520.219,763.8C520.5,764.02 520.78,764.23 521.06,764.45C521.34,764.66 521.62,764.88 521.909,765.09C522.469,765.52 523.03,765.94 523.599,766.36C524.159,766.78 524.73,767.2 525.29,767.61C526.14,768.22 526.99,768.83 527.85,769.43C528.14,769.62 528.42,769.82 528.71,770.02C529.68,770.69 530.63,771.33 531.6,771.98C531.69,772.04 531.79,772.1 531.88,772.16C531.97,772.22 532.07,772.28 532.16,772.34C532.23,772.39 532.31,772.44 532.38,772.49C532.45,772.53 532.52,772.58 532.59,772.63C533.02,772.9 533.45,773.18 533.89,773.46C534.47,773.83 535.04,774.2 535.62,774.56C536.38,775.03 537.13,775.49 537.88,775.95C538.64,776.4 539.4,776.86 540.15,777.3C540.97,777.78 541.79,778.25 542.61,778.72C543.78,779.38 544.95,780.03 546.12,780.67C546.71,780.98 547.3,781.3 547.88,781.61C548.47,781.92 549.06,782.22 549.64,782.53C550.23,782.83 550.82,783.12 551.4,783.42C551.99,783.72 552.58,784.01 553.16,784.3C553.75,784.59 554.33,784.87 554.92,785.15C555.51,785.43 556.1,785.71 556.68,785.99C557.85,786.54 559.02,787.07 560.2,787.59C560.54,787.75 560.88,787.9 561.23,788.05C561.66,788.24 562.09,788.43 562.53,788.62C562.92,788.79 563.31,788.96 563.7,789.12C564.06,789.28 564.42,789.43 564.78,789.58C565.21,789.76 565.64,789.94 566.08,790.12C566.16,790.15 566.24,790.19 566.32,790.22C567.19,790.58 568.06,790.93 568.93,791.27C569.51,791.5 570.08,791.73 570.66,791.95C570.66,791.95 570.67,791.95 570.67,791.94C572.43,790.63 574.21,789.33 575.99,788.03C599.24,771.16 624.01,756.2 650,743.37C702.58,717.36 760.27,700.12 821.14,693.54C824.92,693.13 828.71,692.76 832.51,692.44C832.65,692.06 832.8,691.68 832.94,691.3C833.02,691.11 833.09,690.91 833.16,690.71C833.21,690.58 833.26,690.46 833.3,690.33C833.42,690.03 833.53,689.72 833.64,689.41C833.98,688.51 834.3,687.59 834.62,686.67C834.85,686.02 835.07,685.37 835.28,684.71C835.49,684.11 835.69,683.51 835.88,682.91C836.24,681.81 836.59,680.7 836.93,679.57C836.94,679.52 836.96,679.47 836.97,679.42C837.21,678.61 837.44,677.8 837.68,676.98C837.89,676.26 838.09,675.54 838.29,674.81C838.63,673.61 838.95,672.4 839.26,671.18C839.54,670.11 839.8,669.02 840.07,667.93C840.25,667.14 840.44,666.35 840.62,665.55C840.8,664.75 840.97,663.94 841.15,663.13C841.32,662.33 841.48,661.52 841.65,660.7C841.81,659.88 841.97,659.06 842.13,658.23C842.28,657.4 842.43,656.57 842.58,655.73C842.7,655.07 842.81,654.4 842.92,653.73C843,653.22 843.09,652.7 843.17,652.17C843.25,651.67 843.33,651.17 843.41,650.66C843.42,650.59 843.43,650.53 843.44,650.46C843.56,649.67 843.67,648.88 843.78,648.08C843.9,647.22 844.02,646.35 844.13,645.48C844.29,644.25 844.44,643 844.58,641.75C844.64,641.23 844.7,640.71 844.75,640.18C844.84,639.41 844.92,638.64 844.99,637.86C845.07,637.08 845.14,636.3 845.21,635.52C845.23,635.29 845.25,635.05 845.27,634.82C845.34,633.89 845.42,632.96 845.48,632.03C845.51,631.6 845.54,631.17 845.57,630.74C845.61,630.2 845.65,629.65 845.68,629.1C845.7,628.83 845.71,628.56 845.73,628.29C845.78,627.52 845.82,626.75 845.85,625.97C845.87,625.65 845.89,625.33 845.9,625.01C845.92,624.63 845.94,624.25 845.95,623.86C845.97,623.43 845.99,622.98 846,622.54C846.02,622.22 846.03,621.89 846.04,621.56C846.04,621.46 846.05,621.36 846.05,621.25C846.07,620.55 846.09,619.85 846.11,619.13C846.12,618.96 846.12,618.79 846.12,618.62C846.15,617.53 846.17,616.43 846.18,615.33C846.19,614.22 846.2,613.11 846.2,611.99C846.2,610.93 846.19,609.86 846.18,608.79Z" style="fill:rgb(246,235,20);fill-rule:nonzero;"/>
        </g>
    </g>
</svg>
