<svg id="Layer_1" enable-background="new 0 0 512.001 512.001" height="512" viewBox="0 0 512.001 512.001" width="512" xmlns="http://www.w3.org/2000/svg"><g><path d="m83 258.318c-1.155-120.339 88.397-220.859 204.466-236.264-10.28-1.348-20.78-2.054-31.466-2.054-130.642 0-237.245 107.445-235.988 238.318l-.012 233.682 3.912-3.912c16.314-16.314 37.389-26.689 59.079-30.513z" fill="#cee1f2"/><path d="m19.996 512.001c-2.577 0-5.175-.498-7.65-1.523-7.473-3.096-12.346-10.389-12.346-18.479l.011-233.584c-.632-68.597 25.749-133.365 74.29-182.375 48.567-49.035 113.095-76.04 181.699-76.04 69.114 0 133.742 26.821 181.978 75.522 48.39 48.857 74.674 113.844 74.01 182.988-.654 68.094-27.731 131.89-76.244 179.638-48.389 47.627-112.554 73.852-180.683 73.852-.082 0-.167 0-.248 0-40.3.001-78.774-9.038-114.349-26.866-33.994-17.036-75.149-10.165-102.41 17.097l-3.912 3.912c-3.825 3.825-8.941 5.857-14.146 5.858zm81.272-76.15c19.422 0 38.962 4.423 57.119 13.523 29.958 15.014 62.407 22.626 96.445 22.626.064.001.144.001.207 0 118.52.009 215.818-95.917 216.951-213.874.561-58.388-21.611-113.241-62.431-154.455-40.666-41.059-95.201-63.671-153.559-63.671-57.847 0-112.283 22.796-153.28 64.188-40.995 41.391-63.266 96.061-62.71 153.938 0 .064.001.129.001.193l-.009 193.067c18.953-10.247 40.036-15.535 61.266-15.535z" fill="#1428bf"/><path d="m285.092 406.877c-4.819 0-9.684-.231-14.593-.698-40.042-3.808-78.958-22.621-109.579-52.975-.042-.041-.083-.083-.124-.124-30.353-30.621-49.167-69.537-52.975-109.579-4.114-43.259 10.054-83.487 39.895-113.276 2.655-2.65 9.476-9.24 13.614-12.691 19.853-16.563 48.618-15.286 66.908 2.973.079.079.158.159.236.239l24.026 24.807c13.045 13.092 18.768 29.193 15.704 44.203-2.757 13.503-12.118 24.088-26.36 29.806-6.295 2.526-10.337 4.679-11.951 5.624-8.478 8.979-6.627 14.301-5.505 17.528 2.989 8.595 11.922 18.298 20.267 26.657 8.335 8.32 18.038 17.254 26.633 20.242 3.226 1.12 8.549 2.975 17.527-5.505.945-1.613 3.099-5.656 5.625-11.95 5.718-14.243 16.303-23.604 29.805-26.361 15.011-3.065 31.112 2.658 44.204 15.704l24.805 24.025c.081.078.161.157.24.236 18.258 18.289 19.536 47.054 2.973 66.909-3.455 4.141-10.042 10.959-12.691 13.613-26.409 26.454-61.027 40.593-98.684 40.593zm-95.949-82.02c44.38 43.936 118.702 60.872 166.325 13.167 3.171-3.177 8.355-8.665 10.286-10.979 3.2-3.836 2.987-9.376-.481-12.937l-24.759-23.981c-.081-.078-.161-.157-.24-.236-3.605-3.611-6.488-4.652-7.658-4.854-.265.367-.652 1.019-1.054 2.021-2.727 6.793-8.095 18.985-13.406 24.306-22.595 22.635-45.102 21.208-60.004 16.029-16.17-5.623-29.637-17.616-41.78-29.739-12.147-12.168-24.141-25.635-29.764-41.805-5.181-14.901-6.606-37.407 16.029-60.004 5.316-5.31 17.511-10.679 24.307-13.406 1.001-.402 1.652-.789 2.019-1.054-.201-1.17-1.241-4.053-4.853-7.658-.079-.079-.158-.159-.236-.239l-23.982-24.76c-3.56-3.469-9.1-3.681-12.937-.479-2.313 1.929-7.8 7.112-10.979 10.284-47.706 47.624-30.769 121.946 13.167 166.324zm99.252-40.067s0 0 0 0zm-59.183-59.186s-.001 0-.001.001c0-.001.001-.001.001-.001z" fill="#de5cee"/></g></svg>